<svg aria-hidden="true" style="position: absolute; width: 0; height: 0; overflow: hidden;" version="1.1" xmlns="http://www.w3.org/2000/svg" xmlns:xlink="http://www.w3.org/1999/xlink">
<defs>
<symbol id="icon-Group" viewBox="0 0 34 32">
<path fill="#00a3a9" style="fill: var(--color1, #00a3a9)" d="M29.969 0h-18.536l-3.226 5.729h6.4l-3.613 6.275 6.411-0.005 3.611-6.27h5.659l3.295-5.729z"></path>
<path fill="#00a3a9" style="fill: var(--color1, #00a3a9)" d="M13.816 3.743h-12.698l-1.118 1.986h12.673l1.142-1.986z"></path>
<path fill="#049393" style="fill: var(--color2, #049393)" d="M0.044 8.701l9.268 16.172 6.538-0.050-3.2-5.584 7.201 0.015-3.209-5.591-7.196-0.015-2.829-4.937-6.572-0.011z"></path>
<path fill="#049393" style="fill: var(--color2, #049393)" d="M11.339 20.922l6.349 11.078 2.266-0.017-6.337-11.057-2.278-0.004z"></path>
<path fill="#33b7bc" style="fill: var(--color3, #33b7bc)" d="M22.703 30.488l9.268-16.172-3.311-5.679-3.2 5.584-3.587-6.29-3.201 5.595 3.585 6.286-2.83 4.937 3.277 5.739z"></path>
<path fill="#33b7bc" style="fill: var(--color3, #33b7bc)" d="M27.562 14.523l6.349-11.078-1.148-1.968-6.337 11.057 1.136 1.989z"></path>
</symbol>
<symbol id="icon-TRINITY-LOGO-2" viewBox="0 0 78 32">
<path fill="#fefefe" style="fill: var(--color1, #fefefe)" d="M25.773 20.68v-15.116h2.767v15.116h-2.767zM47.79 20.68v-15.116h2.767v15.116h-2.767zM66.306 8.257h-4.724v12.422h-2.767v-12.422h-4.419l-1.568-2.694h15.154l3.651 6.776 3.65-6.776h3.117l-5.374 9.9-0.022 5.216h-2.766v-5.174l-3.933-7.249zM8.515 8.257v12.422h-2.767v-12.422h-4.348l-1.501-2.694h18.015c1.389 0 2.751 0.333 3.777 1.329 0.98 0.952 1.372 2.184 1.372 3.543 0 1.13-0.273 2.21-1.004 3.086-0.653 0.783-1.523 1.24-2.485 1.478l4.396 5.68h-3.422l-4.149-5.477h-1.925v5.477h-2.767v-8.032c1.986 0 3.972 0.030 5.958 0.030 0.683 0 1.441-0.122 1.963-0.605 0.465-0.429 0.647-0.986 0.647-1.615 0-0.623-0.179-1.179-0.646-1.604-0.524-0.476-1.285-0.596-1.965-0.596-3.050 0-6.1 0-9.15 0l-0-0zM35.528 10.247l-0.034 10.433h-2.767v-12.454l-1.55-2.662h4.636l6.705 10.463 0.023-10.463h2.767v15.116h-3.106l-6.673-10.433z"></path>
</symbol>
<symbol id="icon-Vector-1" viewBox="0 0 428 32">
<path fill="#fff" style="fill: var(--color1, #fff)" d="M71.131 27.514l-6.518-9.57h-2.834v9.57h-5.101v-14.654c3.401 0 6.801 0 10.486 0 1.417 0 2.267-0.299 3.117-0.897 0-0.598 0.567-1.495 0.567-2.692s-0.283-2.093-1.134-2.692c-0.567-0.598-1.7-0.897-3.117-0.897-3.4 0-6.801 0-10.485 0v-5.084h11.052c2.834 0 4.817 0.897 6.518 2.393 1.417 1.495 2.267 3.589 2.267 6.28 0 2.093-0.567 3.888-1.417 5.383-1.134 1.495-2.267 2.393-4.251 2.692l7.085 10.168h-6.234zM13.036 27.813c-3.684 0-6.801-1.196-9.352-3.888s-3.684-5.981-3.684-10.168c0-3.888 1.134-7.178 3.684-9.869s5.668-3.888 9.352-3.888c3.117 0 5.668 0.897 7.935 2.692s3.684 4.187 4.534 6.878h-5.668c-0.567-1.196-1.417-2.393-2.551-3.29-1.134-0.598-2.551-1.196-4.251-1.196-2.267 0-4.251 0.897-5.668 2.393-1.417 1.794-2.267 3.888-2.267 6.28s0.85 4.486 2.267 6.28c1.417 1.495 3.401 2.393 5.668 2.393 1.417 0 2.834-0.299 3.967-1.196 1.417-0.598 2.267-1.794 2.834-2.991h5.668c-0.85 2.692-2.267 5.084-4.534 6.878s-4.818 2.692-7.935 2.692zM47.043 27.215l-2.267-6.28h-10.202l-2.267 6.28h-5.385l9.635-26.916h6.518l9.635 26.916h-5.668zM36.274 15.85h6.801l-3.401-9.869-3.401 9.869zM105.988 27.514l-6.801-9.869h-2.834v9.57h-5.101v-14.355c3.401 0 6.801 0 10.486 0 1.417 0 2.267-0.299 3.117-0.897 0.567-0.598 1.134-1.495 1.134-2.692s-0.283-2.093-1.134-2.692c-0.567-0.598-1.7-0.897-3.117-0.897-3.401 0-6.801 0-10.486 0v-5.084h10.769c2.834 0 4.817 0.897 6.518 2.393 1.417 1.495 2.267 3.589 2.267 6.28 0 2.093-0.567 3.888-1.417 5.383-1.134 1.495-2.267 2.393-4.251 2.692l7.085 10.168h-6.234zM133.194 5.682h-11.903v5.383h11.052v5.084h-11.052v5.682h11.903v5.084h-17.003v-26.916h17.003v5.682zM153.598 0.598h5.101v26.916h-5.951l-11.052-18.841 0.567 7.477v11.364h-5.101v-26.916h5.951l11.052 18.841-0.567-7.477v-11.364zM182.22 0.598v5.084h-7.368v21.533h-5.101v-21.533h-7.368v-5.084h19.837zM201.207 27.514l-2.267-6.28h-10.202l-2.267 6.28h-5.384l9.635-26.916h6.518l9.635 26.916h-5.668zM190.722 15.85h6.801l-3.401-9.869-3.401 9.869zM215.944 22.131h10.769v5.084h-16.153v-26.916h5.101v21.832h0.283zM257.319 12.86c1.417 0.598 2.267 1.196 3.117 2.393 0.567 1.196 1.133 2.692 1.133 4.187 0 2.393-0.85 4.187-2.267 5.682s-3.684 2.093-6.234 2.093h-11.336v-16.15h10.486c1.984 0 3.117-0.897 3.117-2.692 0-0.897-0.283-1.794-0.85-2.093s-1.417-0.598-2.55-0.598c-3.401 0-7.085 0-10.486 0v-5.084h11.052c2.267 0 4.251 0.598 5.668 1.794s1.984 2.991 1.984 5.084c0.284 2.692-0.85 4.486-2.834 5.383zM252.501 22.131c1.134 0 2.267-0.299 2.551-0.897 0.567-0.598 0.85-1.196 0.85-2.093s-0.283-1.794-0.85-2.393c-0.567-0.598-1.417-0.598-2.834-0.598h-5.668v5.981h5.951zM268.088 4.187c2.55-2.692 5.668-4.187 9.635-4.187 3.684 0 6.801 1.196 9.352 3.888s3.684 5.981 3.684 9.869-1.133 7.178-3.684 9.869c-2.55 2.692-5.668 3.888-9.352 3.888s-6.801-1.196-9.352-3.888c-2.551-2.692-3.684-5.981-3.684-9.869-0.283-3.589 0.85-6.878 3.401-9.57zM283.391 7.776c-1.417-1.495-3.401-2.393-5.668-2.393s-4.251 0.897-5.668 2.393c-1.417 1.495-2.267 3.589-2.267 6.28 0 2.393 0.85 4.486 2.267 6.28 1.417 1.495 3.401 2.393 5.668 2.393s4.251-0.897 5.668-2.393c1.417-1.495 2.267-3.589 2.267-6.28s-0.85-4.785-2.267-6.28zM311.162 0.598h5.385v16.15c0 3.589-0.849 6.579-2.833 8.374-1.984 2.093-4.535 2.991-7.651 2.991-3.119 0-5.67-0.897-7.651-2.991-1.984-2.093-2.836-4.785-2.836-8.374v-16.15h5.385v15.85c0 4.187 1.702 6.28 5.103 6.28s5.1-2.093 5.1-6.28v-15.85zM339.785 0.598v5.084h-7.369v21.533h-5.1v-21.533h-7.369v-5.084h19.837zM343.471 27.514v-26.916h5.1v26.916h-5.1zM379.744 14.056c0 3.888-1.135 7.178-3.686 9.57l3.686 5.084-3.968 3.29-3.683-5.383c-1.702 0.897-3.686 1.196-5.67 1.196-3.683 0-6.801-1.196-9.35-3.888-2.551-2.692-3.686-5.981-3.686-9.869s1.135-7.178 3.686-9.869c2.548-2.692 5.667-3.888 9.35-3.888 3.686 0 6.801 1.196 9.353 3.888s3.968 5.981 3.968 9.869zM360.756 7.776c-1.417 1.495-2.266 3.589-2.266 6.28 0 2.393 0.849 4.486 2.266 6.28 1.417 1.495 3.401 2.393 5.667 2.393 2.269 0 4.25-0.897 5.67-2.393 1.417-1.495 2.266-3.589 2.266-6.28 0-2.393-0.849-4.486-2.266-6.28-1.42-1.495-3.401-2.393-5.67-2.393-2.266 0-4.25 0.598-5.667 2.393zM399.863 0.598h5.385v16.15c0 3.589-0.849 6.579-2.833 8.374-1.984 2.093-4.535 2.991-7.651 2.991-3.119 0-5.667-0.897-7.651-2.991s-2.836-4.785-2.836-8.374v-16.15h5.385v15.85c0 4.187 1.702 6.28 5.103 6.28s5.1-2.093 5.1-6.28v-15.85zM427.636 5.682h-11.901v5.383h11.052v5.084h-11.052v5.682h11.901v5.084h-17.004v-26.916h17.004v5.682z"></path>
</symbol>
</defs>
</svg>
